<svg width="34.000000" height="34.000000" viewBox="0 0 34 34" fill="none" xmlns="http://www.w3.org/2000/svg" xmlns:xlink="http://www.w3.org/1999/xlink">
	<desc>
			Created with Pixso.
	</desc>
	<defs/>
	<rect id="cross button" rx="16.500000" width="33.000000" height="33.000000" transform="translate(0.500000 0.500000)" fill="#CCCCCE" fill-opacity="0.280000"/>
	<path id="+" d="M10.07 21.67L21.81 9.92C22.47 9.26 23.55 9.26 24.21 9.92C24.87 10.59 24.87 11.66 24.21 12.32L12.47 24.07C11.8 24.73 10.73 24.73 10.07 24.07C9.4 23.4 9.4 22.33 10.07 21.67ZM10.07 12.32C9.4 11.66 9.4 10.59 10.07 9.92C10.73 9.26 11.8 9.26 12.47 9.92L24.21 21.67C24.87 22.33 24.87 23.4 24.21 24.07C23.55 24.73 22.47 24.73 21.81 24.07L10.07 12.32Z" fill="#FFFFFF" fill-opacity="1.000000" fill-rule="nonzero"/>
</svg>
